<svg id="visual" viewBox="0 0 1920 900" width="1920" height="900" xmlns="http://www.w3.org/2000/svg" xmlns:xlink="http://www.w3.org/1999/xlink" version="1.1"><rect x="0" y="0" width="1920" height="900" fill="#F7CACA" fill-opacity="0.1"></rect><g transform="translate(-108.21277371608096 950.905690932408)"><path d="M490.6 -641C633.3 -571.6 744.6 -424.9 750 -275.1C755.5 -125.4 655 27.4 556.4 134.4C457.8 241.5 361.2 302.8 268.8 382.4C176.3 462 88.2 560 -17.5 584.2C-123.2 608.3 -246.5 558.6 -337.1 478.4C-427.8 398.2 -485.9 287.5 -514.2 173.4C-542.4 59.4 -540.8 -57.9 -505.2 -163.1C-469.6 -268.4 -400 -361.5 -310.1 -448C-220.2 -534.4 -110.1 -614.2 31.9 -658.2C174 -702.1 348 -710.3 490.6 -641" fill="#FCAF3C" fill-opacity='0.2'></path></g></svg>