<svg id="visual" viewBox="0 0 1900 80" width="1900" height="80" xmlns="http://www.w3.org/2000/svg" xmlns:xlink="http://www.w3.org/1999/xlink" version="1.1"><path d="M0 69L12.7 64.2C25.3 59.3 50.7 49.7 76 51.2C101.3 52.7 126.7 65.3 152 63.5C177.3 61.7 202.7 45.3 228 36C253.3 26.7 278.7 24.3 304 24C329.3 23.7 354.7 25.3 380 31.5C405.3 37.7 430.7 48.3 456 47.7C481.3 47 506.7 35 532 36.8C557.3 38.7 582.7 54.3 608 58.3C633.3 62.3 658.7 54.7 684 53.5C709.3 52.3 734.7 57.7 760 54.7C785.3 51.7 810.7 40.3 836 37.5C861.3 34.7 886.7 40.3 912 39.2C937.3 38 962.7 30 988 25.3C1013.3 20.7 1038.7 19.3 1064 19.2C1089.3 19 1114.7 20 1140 26.3C1165.3 32.7 1190.7 44.3 1216 53.5C1241.3 62.7 1266.7 69.3 1292 63C1317.3 56.7 1342.7 37.3 1368 26.7C1393.3 16 1418.7 14 1444 19C1469.3 24 1494.7 36 1520 41C1545.3 46 1570.7 44 1596 42.5C1621.3 41 1646.7 40 1672 41.2C1697.3 42.3 1722.7 45.7 1748 42.2C1773.3 38.7 1798.7 28.3 1824 21.5C1849.3 14.7 1874.7 11.3 1887.3 9.7L1900 8L1900 0L1887.3 0C1874.7 0 1849.3 0 1824 0C1798.7 0 1773.3 0 1748 0C1722.7 0 1697.3 0 1672 0C1646.7 0 1621.3 0 1596 0C1570.7 0 1545.3 0 1520 0C1494.7 0 1469.3 0 1444 0C1418.7 0 1393.3 0 1368 0C1342.7 0 1317.3 0 1292 0C1266.7 0 1241.3 0 1216 0C1190.7 0 1165.3 0 1140 0C1114.7 0 1089.3 0 1064 0C1038.7 0 1013.3 0 988 0C962.7 0 937.3 0 912 0C886.7 0 861.3 0 836 0C810.7 0 785.3 0 760 0C734.7 0 709.3 0 684 0C658.7 0 633.3 0 608 0C582.7 0 557.3 0 532 0C506.7 0 481.3 0 456 0C430.7 0 405.3 0 380 0C354.7 0 329.3 0 304 0C278.7 0 253.3 0 228 0C202.7 0 177.3 0 152 0C126.7 0 101.3 0 76 0C50.7 0 25.3 0 12.7 0L0 0Z" fill="#FF0066" fill-opacity="0.1" stroke-linecap="round" stroke-linejoin="miter"></path></svg>